<svg width="27" height="27" viewBox="0 0 27 27" fill="none" xmlns="http://www.w3.org/2000/svg">
<circle cx="13.5" cy="13.5" r="12.5" stroke="white" stroke-width="2"/>
<path d="M9.54867 8.39465L9.37189 8.21787L9.19512 8.39465L8.3947 9.19507L8.21792 9.37185L8.3947 9.54863L12.3461 13.5L8.3947 17.4514L8.21792 17.6281L8.3947 17.8049L9.19512 18.6053L9.37189 18.7821L9.54867 18.6053L13.5 14.654L17.4514 18.6053L17.6282 18.7821L17.805 18.6053L18.6054 17.8049L18.7822 17.6281L18.6054 17.4514L14.654 13.5L18.6054 9.54863L18.7822 9.37185L18.6054 9.19507L17.805 8.39465L17.6282 8.21787L17.4514 8.39465L13.5 12.346L9.54867 8.39465Z" fill="white" stroke="white" stroke-width="0.5"/>
</svg>
