<svg width="24" height="24" viewBox="0 0 24 24" fill="none" xmlns="http://www.w3.org/2000/svg">
<path d="M10.4058 0.279731H10.5093L10.5386 0.250515C16.0913 0.305988 20.5913 4.8402 20.5913 10.4058C20.5913 12.1424 20.0992 13.7959 19.3142 15.2205L19.2023 15.4235L19.3964 15.5504C19.5534 15.653 19.6994 15.7717 19.832 15.9044L19.8321 15.9044L22.8052 18.8775L22.8104 18.8827L22.8159 18.8876C23.0993 19.1395 23.3283 19.4466 23.4887 19.7902C23.6491 20.1338 23.7376 20.5065 23.7488 20.8856C23.76 21.2646 23.6935 21.6419 23.5536 21.9943C23.4136 22.3468 23.2031 22.6669 22.935 22.935C22.6669 23.2031 22.3468 23.4136 21.9943 23.5536C21.6419 23.6935 21.2646 23.76 20.8856 23.7488C20.5066 23.7376 20.1338 23.6491 19.7902 23.4887C19.4466 23.3283 19.1395 23.0993 18.8876 22.8159L18.8827 22.8104L18.8775 22.8052L15.9044 19.8321L15.8962 19.8239L15.8874 19.8166C15.7588 19.7097 15.6403 19.5912 15.5334 19.4626L15.4014 19.3037L15.2205 19.4034C13.8039 20.184 12.1216 20.5913 10.4058 20.5913C4.80581 20.5913 0.25 16.0355 0.25 10.4355C0.25 4.83554 4.80581 0.279731 10.4058 0.279731ZM10.4058 2.75281H10.3022L10.2718 2.78322C6.05002 2.83821 2.69335 6.2294 2.69335 10.4653C2.69335 14.7359 6.10541 18.148 10.3761 18.148C12.3673 18.148 14.212 17.4433 15.5687 16.2099L15.5817 16.1981L15.5929 16.1847C15.6997 16.0561 15.8182 15.9376 15.9469 15.8307L15.9557 15.8233L15.9639 15.8152L15.964 15.815L15.9642 15.8148L15.9644 15.8147L15.9645 15.8145L15.9647 15.8143L15.9649 15.8142L15.9651 15.814L15.9652 15.8138L15.9654 15.8136L15.9656 15.8135L15.9658 15.8133L15.9659 15.8131L15.9661 15.8129L15.9663 15.8128L15.9665 15.8126L15.9666 15.8124L15.9668 15.8122L15.967 15.8121L15.9672 15.8119L15.9673 15.8117L15.9675 15.8115L15.9677 15.8114L15.9679 15.8112L15.968 15.811L15.9682 15.8108L15.9684 15.8107L15.9686 15.8105L15.9687 15.8103L15.9689 15.8101L15.9691 15.81L15.9693 15.8098L15.9694 15.8096L15.9696 15.8094L15.9698 15.8093L15.9699 15.8091L15.9701 15.8089L15.9703 15.8088L15.9705 15.8086L15.9706 15.8084L15.9708 15.8082L15.971 15.8081L15.9712 15.8079L15.9713 15.8077L15.9715 15.8075L15.9717 15.8074L15.9719 15.8072L15.972 15.807L15.9722 15.8068L15.9724 15.8067L15.9726 15.8065L15.9727 15.8063L15.9729 15.8061L15.9731 15.806L15.9733 15.8058L15.9734 15.8056L15.9736 15.8054L15.9738 15.8053L15.974 15.8051L15.9741 15.8049L15.9743 15.8047L15.9745 15.8046L15.9747 15.8044L15.9748 15.8042L15.975 15.804L15.9752 15.8039L15.9754 15.8037L15.9755 15.8035L15.9757 15.8034L15.9759 15.8032L15.976 15.803L15.9762 15.8028L15.9764 15.8027L15.9766 15.8025L15.9767 15.8023L15.9769 15.8021L15.9771 15.802L15.9773 15.8018L15.9774 15.8016L15.9776 15.8014L15.9778 15.8013L15.978 15.8011L15.9781 15.8009L15.9783 15.8007L15.9785 15.8006L15.9787 15.8004L15.9788 15.8002L15.979 15.8L15.9792 15.7999L15.9794 15.7997L15.9795 15.7995L15.9797 15.7993L15.9799 15.7992L15.9801 15.799L15.9802 15.7988L15.9804 15.7986L15.9806 15.7985L15.9808 15.7983L15.9809 15.7981L15.9811 15.798L15.9813 15.7978L15.9814 15.7976L15.9816 15.7974L15.9818 15.7973L15.982 15.7971L15.9821 15.7969L15.9823 15.7967L15.9825 15.7966L15.9827 15.7964L15.9828 15.7962L15.983 15.796L15.9832 15.7959L15.9834 15.7957L15.9835 15.7955L15.9837 15.7953L15.9839 15.7952L15.9841 15.795L15.9842 15.7948L15.9844 15.7946L15.9846 15.7945L15.9848 15.7943L15.9849 15.7941L15.9851 15.7939L15.9853 15.7938L15.9855 15.7936L15.9856 15.7934L15.9858 15.7932L15.986 15.7931L15.9862 15.7929L15.9863 15.7927L15.9865 15.7926L15.9867 15.7924L15.9868 15.7922L15.987 15.792L15.9872 15.7919L15.9874 15.7917L15.9875 15.7915L15.9877 15.7913L15.9879 15.7912L15.9881 15.791L15.9882 15.7908L15.9884 15.7906L15.9886 15.7905L15.9888 15.7903L15.9889 15.7901L15.9891 15.7899L15.9893 15.7898L15.9895 15.7896L15.9896 15.7894L15.9898 15.7892L15.99 15.7891L15.9902 15.7889L15.9903 15.7887L15.9905 15.7885L15.9907 15.7884L15.9909 15.7882L15.991 15.788L15.9912 15.7878L15.9914 15.7877L15.9916 15.7875L15.9917 15.7873L15.9919 15.7872L15.9921 15.787L15.9922 15.7868L15.9924 15.7866L15.9926 15.7865L15.9928 15.7863L15.9929 15.7861L15.9931 15.7859L15.9933 15.7858L15.9935 15.7856L15.9936 15.7854L15.9938 15.7852L15.994 15.7851L15.9942 15.7849L15.9943 15.7847L15.9945 15.7845L15.9947 15.7844L15.9949 15.7842L15.995 15.784L15.9952 15.7838L15.9954 15.7837L15.9956 15.7835L15.9957 15.7833L15.9959 15.7831L15.9961 15.783L15.9963 15.7828L15.9964 15.7826L15.9966 15.7824L15.9968 15.7823L15.997 15.7821L15.9971 15.7819L15.9973 15.7817L15.9975 15.7816L15.9976 15.7814L15.9978 15.7812L15.998 15.7811L15.9982 15.7809L15.9983 15.7807L15.9985 15.7805L15.9987 15.7804L15.9989 15.7802L15.999 15.78L15.9992 15.7798L15.9994 15.7797L15.9996 15.7795L15.9997 15.7793L15.9999 15.7791L16.0001 15.779L16.0003 15.7788L16.0004 15.7786L16.0006 15.7784L16.0008 15.7783L16.001 15.7781L16.0011 15.7779L16.0013 15.7777L16.0015 15.7776L16.0017 15.7774L16.0018 15.7772L16.002 15.777L16.0022 15.7769L16.0024 15.7767L16.0025 15.7765L16.0027 15.7763L16.0029 15.7762L16.003 15.776L16.0032 15.7758L16.0034 15.7757L16.0036 15.7755L16.0037 15.7753L16.0039 15.7751L16.0041 15.775L16.0043 15.7748L16.0044 15.7746L16.0046 15.7744L16.0048 15.7743L16.005 15.7741L16.0051 15.7739L16.0053 15.7737L16.0055 15.7736L16.0057 15.7734L16.0058 15.7732L16.006 15.773L16.0062 15.7729L16.0064 15.7727L16.0065 15.7725L16.0067 15.7723L16.0069 15.7722L16.0071 15.772L16.0072 15.7718L16.0074 15.7716L16.0076 15.7715L16.0078 15.7713L16.0079 15.7711L16.0081 15.7709L16.0083 15.7708L16.0084 15.7706L16.0086 15.7704L16.0088 15.7703L16.009 15.7701L16.0091 15.7699L16.0093 15.7697L16.0095 15.7696L16.0097 15.7694L16.0098 15.7692L16.01 15.769L16.0102 15.7689L16.0104 15.7687L16.0105 15.7685L16.0107 15.7683L16.0109 15.7682L16.0111 15.768L16.0112 15.7678L16.0114 15.7676L16.0116 15.7675L16.0118 15.7673L16.0119 15.7671L16.0121 15.7669L16.0123 15.7668L16.0125 15.7666L16.0126 15.7664L16.0128 15.7662L16.013 15.7661L16.0132 15.7659L16.0133 15.7657L16.0135 15.7655L16.0137 15.7654L16.0138 15.7652L16.014 15.765L16.0142 15.7649L16.0144 15.7647L16.0145 15.7645L16.0147 15.7643L16.0149 15.7642L16.0151 15.764L16.0152 15.7638L16.0154 15.7636L16.0156 15.7635L16.0158 15.7633L16.0159 15.7631L16.0161 15.7629L16.0163 15.7628L16.0165 15.7626L16.0166 15.7624L16.0168 15.7622L16.017 15.7621L16.0172 15.7619L16.0173 15.7617L16.0175 15.7615L16.0177 15.7614L16.0179 15.7612L16.018 15.761L16.0182 15.7608L16.0184 15.7607L16.0186 15.7605L16.0187 15.7603L16.0189 15.7601L16.0191 15.76L16.0192 15.7598L16.0194 15.7596L16.0196 15.7595L16.0198 15.7593L16.0199 15.7591L16.0201 15.7589L16.0203 15.7588L16.0205 15.7586L16.0206 15.7584L16.0208 15.7582L16.021 15.7581L16.0212 15.7579L16.0213 15.7577L16.0215 15.7575L16.0217 15.7574L16.0219 15.7572L16.022 15.757L16.0222 15.7568L16.0224 15.7567L16.0226 15.7565L16.0227 15.7563L16.0229 15.7561L16.0231 15.756L16.0233 15.7558L16.0234 15.7556L16.0236 15.7554L16.0238 15.7553L16.024 15.7551L16.0241 15.7549L16.0243 15.7547L16.0245 15.7546L16.0247 15.7544L16.0248 15.7542L16.025 15.7541L16.0252 15.7539L16.0253 15.7537L16.0255 15.7535L16.0257 15.7534L16.0259 15.7532L16.026 15.753L16.0262 15.7528L16.0264 15.7527L16.0266 15.7525L16.0267 15.7523L16.0269 15.7521L16.0271 15.752L16.0273 15.7518L16.0274 15.7516L16.0276 15.7514L16.0278 15.7513L16.028 15.7511L16.0281 15.7509L16.0283 15.7507L16.0285 15.7506L16.0287 15.7504L16.0288 15.7502L16.029 15.75L16.0292 15.7499L16.0294 15.7497L16.0295 15.7495L16.0297 15.7493L16.0299 15.7492L16.0301 15.749L16.0302 15.7488L16.0304 15.7487L16.0306 15.7485L16.0307 15.7483L16.0309 15.7481L16.0311 15.748L16.0313 15.7478L16.0314 15.7476L16.0316 15.7474L16.0318 15.7473L16.032 15.7471L16.0321 15.7469L16.0323 15.7467L16.0325 15.7466L16.0327 15.7464L16.0328 15.7462L16.033 15.746L16.0332 15.7459L16.0334 15.7457L16.0335 15.7455L16.0337 15.7453L16.0339 15.7452L16.0341 15.745L16.0342 15.7448L16.0344 15.7446L16.0346 15.7445L16.0348 15.7443L16.0349 15.7441L16.0351 15.7439L16.0353 15.7438L16.0354 15.7436L16.0356 15.7434L16.0358 15.7433L16.036 15.7431L16.0361 15.7429L16.0363 15.7427L16.0365 15.7426L16.0367 15.7424L16.0368 15.7422L16.037 15.742L16.0372 15.7419L16.0374 15.7417L16.0375 15.7415L16.0377 15.7413L16.0379 15.7412L16.0381 15.741L16.0382 15.7408L16.0384 15.7406L16.0386 15.7405L16.0388 15.7403L16.0389 15.7401L16.0391 15.7399L16.0393 15.7398L16.0395 15.7396L16.0396 15.7394L16.0398 15.7392L16.04 15.7391L16.0402 15.7389L16.0403 15.7387L16.0405 15.7385L16.0407 15.7384L16.0409 15.7382L16.041 15.738L16.0412 15.7379L16.0414 15.7377L16.0415 15.7375L16.0417 15.7373L16.0419 15.7372L16.0421 15.737L16.0422 15.7368L16.0424 15.7366L16.0426 15.7365L16.0428 15.7363L16.0429 15.7361L16.0431 15.7359L16.0433 15.7358L16.0435 15.7356L16.0436 15.7354L16.0438 15.7352L16.044 15.7351L16.0442 15.7349L16.0443 15.7347L16.0445 15.7345L16.0447 15.7344L16.0449 15.7342L16.045 15.734L16.0452 15.7338L16.0454 15.7337L16.0456 15.7335L16.0457 15.7333L16.0459 15.7331L16.0461 15.733L16.0463 15.7328L16.0464 15.7326L16.0466 15.7324L16.0468 15.7323L16.0469 15.7321L16.0471 15.7319L16.0473 15.7318L16.0475 15.7316L16.0476 15.7314L16.0478 15.7312L16.048 15.7311L16.0482 15.7309L16.0483 15.7307L16.0485 15.7305L16.0487 15.7304L16.0489 15.7302L16.049 15.73L16.0492 15.7298L16.0494 15.7297L16.0496 15.7295L16.0497 15.7293L16.0499 15.7291L16.0501 15.729L16.0503 15.7288L16.0504 15.7286L16.0506 15.7284L16.0508 15.7283L16.051 15.7281L16.0511 15.7279L16.0513 15.7277L16.0515 15.7276L16.0517 15.7274L16.0518 15.7272L16.052 15.727L16.0522 15.7269L16.0523 15.7267L16.0525 15.7265L16.0527 15.7264L16.0529 15.7262L16.053 15.726L16.0532 15.7261L16.059 15.7198C17.3526 14.3338 18.0885 12.4586 18.0885 10.4355C18.0885 6.16487 14.6765 2.75281 10.4058 2.75281Z" fill="white" stroke="#006089" stroke-width="0.5"/>
</svg>
