<svg width="800" height="266" viewBox="0 0 800 266" fill="none" xmlns="http://www.w3.org/2000/svg">
<g clip-path="url(#clip0_924_90)">
<path d="M330.34 87.5701V97.1501H312.86V127.45H329.69V136.9H312.86V178.21H302.5V87.5701H330.34Z" fill="#606060"/>
<path d="M357.32 179H353.44C342.17 179 336.61 173.43 336.61 162.16V103.63C336.61 92.36 342.18 86.8 353.44 86.8H357.32C368.59 86.8 374.15 92.37 374.15 103.63V162.16C374.16 173.43 368.59 179 357.32 179ZM356.93 96.25H353.82C349.16 96.25 346.96 98.45 346.96 103.11V162.68C346.96 167.34 349.16 169.54 353.82 169.54H356.93C361.59 169.54 363.79 167.34 363.79 162.68V103.11C363.8 98.45 361.59 96.25 356.93 96.25Z" fill="#606060"/>
<path d="M418.31 162.16C418.31 173.43 412.74 179 401.48 179H398.24C386.97 179 381.41 173.43 381.41 162.16V87.5701H391.77V162.68C391.77 167.34 393.97 169.54 398.63 169.54H401.09C405.75 169.54 407.95 167.34 407.95 162.68V87.5701H418.31V162.16Z" fill="#606060"/>
<path d="M462.03 147.66V178.22H451.67V148.05C451.67 142.61 449.21 140.15 443.77 140.15H436.13V178.22H425.77V87.5701H445.06C456.33 87.5701 461.89 93.1401 461.89 104.4V121.23C461.89 129.39 459.04 133.4 453.86 135.47C459.57 137.04 462.03 140.67 462.03 147.66ZM444.68 97.0301H436.13V130.96H443.9C449.08 130.96 451.54 128.5 451.54 123.32V103.9C451.54 99.2301 449.34 97.0301 444.68 97.0301Z" fill="#606060"/>
<path d="M514.47 178.22L497.51 133.67V178.22H487.15V87.5701H497.51V131.47L515.38 87.5701H526.39L507.74 132.12L525.87 178.22H514.47Z" fill="#606060"/>
<path d="M542.23 178.22H531.87V87.5701H542.23V178.22Z" fill="#606060"/>
<path d="M561.47 178.22V97.1601H547.87V87.5801H585.42V97.1601H571.82V178.22H561.47Z" fill="#606060"/>
<path d="M627.88 143.39V162.17C627.88 173.44 622.31 179.01 611.05 179.01H607.68C596.41 179.01 590.85 173.44 590.85 162.17V103.64C590.85 92.3701 596.42 86.8101 607.68 86.8101H611.05C622.19 86.8101 627.62 92.2501 627.62 103.38V119.7H617.52V103.13C617.52 98.4701 615.32 96.2701 610.66 96.2701H608.07C603.41 96.2701 601.21 98.4701 601.21 103.13V162.7C601.21 167.36 603.41 169.56 608.07 169.56H610.92C615.58 169.56 617.78 167.36 617.78 162.7V143.41H627.88V143.39Z" fill="#606060"/>
<path d="M662.09 127.07V87.5701H672.45V178.22H662.09V136.78H645.26V178.22H634.9V87.5701H645.26V127.07H662.09Z" fill="#606060"/>
<path d="M708.48 87.5701V97.1501H690.35V127.19H707.83V136.64H690.35V168.62H708.74V178.2H680V87.5701H708.48Z" fill="#606060"/>
<path d="M725.29 107.26V178.22H715.45V87.5701H729.69L744.71 152.96V87.5701H754.55V178.22H741.6L725.29 107.26Z" fill="#606060"/>
<path d="M798 148.95V162.16C798 173.43 792.43 179 781.17 179H778.32C767.18 179 761.74 173.43 761.74 162.42V143.38H771.84V162.8C771.84 167.46 774.04 169.66 778.7 169.66H780.77C785.43 169.66 787.63 167.46 787.63 162.8V149.2C787.63 144.67 786.08 142.73 783.1 140.52L770.41 131.33C763.68 126.54 761.73 121.88 761.73 114.49V103.61C761.73 92.34 767.3 86.78 778.56 86.78H781.15C792.29 86.78 797.73 92.35 797.73 103.35V119.67H787.63V102.96C787.63 98.3 785.43 96.1 780.77 96.1H778.96C774.3 96.1 772.1 98.3 772.1 102.96V114.36C772.1 118.89 773.78 120.83 776.76 123.04L789.32 132.1C795.93 136.91 798 141.18 798 148.95Z" fill="#606060"/>
<path d="M264.774 154.085C276.474 81.9932 227.517 14.0663 155.425 2.36626C83.3328 -9.33381 15.4059 39.6235 3.70584 111.716C-7.99422 183.808 40.9631 251.734 113.055 263.434C185.147 275.135 253.074 226.177 264.774 154.085Z" fill="#35AA4E"/>
<path d="M168.94 96.9698V81.0498C168.94 64.9398 173.11 56.5898 189.61 56.5898H193.59V44.2598H187.14C164.57 44.2598 153.58 56.3998 153.58 79.5298V92.9898C153.58 112.52 148.27 125.98 128.55 125.98H126.84V139.62H128.55C148.07 139.62 153.58 153.46 153.58 172.6V186.26C153.58 209.01 164.19 221.52 187.14 221.52H193.59V209.2H189.61C173.11 209.2 168.94 200.86 168.94 184.74V168.82C168.94 149.85 161.16 138.48 144.86 132.98C160.98 127.3 168.94 116.31 168.94 96.9698Z" fill="white"/>
<path d="M115.01 163.06V92.7999C115.01 63.2999 112.25 42.6299 112.25 42.6299C112.25 42.6299 92.45 56.5799 83.84 95.3099C77.03 125.97 74.88 158.98 74.88 158.98C74.88 158.98 100.7 158.79 102.25 162.08C103.79 165.36 100.63 174.52 100.63 185.15C100.63 195.78 101.98 200.74 100.82 204.79C99.66 208.86 96.88 209.89 96.76 211.75C96.64 213.61 96.96 223.16 106.82 223.16C109.56 223.16 113.57 220.53 114.34 213.7C115.61 202.52 115.97 180.28 115.01 163.06ZM106.66 215.32C105.39 215.32 104.38 214.3 104.38 213.04C104.38 211.78 105.4 210.75 106.66 210.75C107.93 210.75 108.95 211.78 108.95 213.04C108.95 214.3 107.93 215.32 106.66 215.32ZM108.51 195.29C107.24 195.29 106.22 194.27 106.22 193C106.22 191.74 107.24 190.72 108.51 190.72C109.77 190.72 110.8 191.74 110.8 193C110.79 194.27 109.77 195.29 108.51 195.29ZM108.85 175.84C107.6 175.84 106.57 174.81 106.57 173.55C106.57 172.28 107.6 171.26 108.85 171.26C110.12 171.26 111.14 172.28 111.14 173.55C111.14 174.81 110.12 175.84 108.85 175.84Z" fill="white"/>
</g>
<defs>
<clipPath id="clip0_924_90">
<rect width="800" height="265.8" fill="white"/>
</clipPath>
</defs>
</svg>
