<svg width="175" height="60" viewBox="0 0 175 60" fill="none" xmlns="http://www.w3.org/2000/svg">
<path d="M93.713 0.611725C93.3714 0.611725 92.8249 0.657041 92.6427 1.11017C90.5476 9.17594 88.0198 23.3363 86.9494 32.6709C86.8356 32.6709 86.7445 32.6709 86.6762 32.6709C86.6762 32.6709 85.4464 38.1085 83.1008 38.1085C81.37 38.1085 80.869 35.6615 80.9829 34.0076C81.0968 30.1333 83.3741 18.9183 83.6018 16.5847C83.6473 15.6331 80.7096 13.9112 78.6373 13.9112C77.7491 13.9112 77.0659 14.1377 77.0204 14.6362C76.0639 20.1871 72.3975 32.331 68.7082 37.2022L67.9795 36.9756C67.5924 31.4247 69.7558 22.7246 71.8281 16.3354C71.3727 15.6104 69.3687 14.5002 67.0914 14.5002C64.4725 14.5002 61.011 28.8192 61.011 35.299C61.011 35.7522 61.0793 36.1826 61.1931 36.6358C60.5555 38.0858 59.5763 39.6265 58.3465 39.6265C56.889 39.6265 56.2286 38.3577 56.2286 35.6842C56.2286 29.9068 59.3485 21.4785 60.1228 15.8823C60.3505 14.1151 56.8435 12.5518 54.1107 12.5518C53.2681 12.5518 52.3344 12.7783 52.1067 13.2088C49.0324 18.805 47.2105 25.4661 45.0926 31.2435H44.8649C45.0926 27.1426 46.0263 21.3652 46.4362 17.7175C46.664 16.0636 43.8173 14.6588 40.9251 14.6588C40.3103 14.6588 39.3083 14.7721 39.0805 15.2026C37.3498 19.0769 35.3913 24.9676 33.2279 30.6771H33.0001C33.114 27.3466 34.7764 20.6855 36.0062 15.5878C36.2339 14.7042 33.5011 13.3221 31.2694 13.3221C29.7891 13.3221 26.9653 24.809 26.4871 34.0982C22.98 34.0529 17.5145 34.9818 10.4093 36.6584C10.7509 32.7841 11.138 29.0685 11.6846 25.4661C14.9184 24.9676 18.6531 24.4692 21.8414 24.4012C22.7978 24.4012 22.8434 23.6309 22.8434 23.2457C22.8434 22.7926 21.6819 21.0254 20.6799 20.0738C20.0195 19.4621 18.061 19.6886 15.4421 19.8472L12.6638 20.1191C13.2787 16.7886 14.053 13.458 14.9411 10.1955C18.0155 9.69704 20.5661 9.31188 23.5721 9.08531C23.5721 9.08531 23.1166 10.1502 23.1166 10.8072C23.0711 11.4189 24.8474 11.3057 26.2365 10.6939C26.897 10.3088 30.5179 7.81654 30.5179 7.43137C30.5179 6.97824 29.2881 4.4407 29.0149 4.16882C27.5574 2.78676 25.3256 3.28521 23.2761 3.51178C21.773 3.67037 19.4274 3.96491 16.6946 4.46335L17.0818 3.3985C16.0115 2.5602 13.4609 2.06176 11.5024 1.83519C10.842 2.99068 10.2271 4.32741 9.61224 5.82275C7.03888 6.43448 4.37444 7.1595 1.98327 7.92982C0.821848 8.31499 3.60016 12.3705 5.10318 12.0986C6.05965 11.94 6.94779 11.7135 7.79039 11.5549C6.94779 14.6588 6.21906 18.0347 5.55864 21.4785C3.66848 21.9769 2.05159 22.4754 1.43672 22.8605C0.480254 23.5176 2.71201 27.0747 4.55663 26.7348H4.71604C4.10116 30.7904 3.60016 34.7779 3.32689 38.3803L0.320844 39.1507C-0.908899 39.4905 1.66445 43.6367 3.50907 43.3195L3.85066 43.2062C5.69528 44.0898 9.74888 45.5398 9.86274 44.2711L9.97661 42.0507C16.8541 40.7366 22.2285 39.853 26.7603 39.5585C27.4663 42.2999 29.2426 43.8406 31.9526 43.8406C33.3417 43.8406 34.4576 42.957 34.4576 42.957C34.5715 38.1311 37.1904 30.3146 38.9211 25.7153H39.3766C38.9211 29.8161 38.6023 34.8006 38.534 39.0827C38.4884 43.025 39.8776 45.4719 43.4985 45.4719C45.0015 45.4719 46.0719 44.7015 46.0719 44.7015C46.1857 39.8757 48.8046 30.224 51.0819 25.6247H51.6968C51.0819 28.2981 50.0344 33.5998 49.966 35.8201C49.8066 40.3062 51.4235 44.1351 56.7752 44.1351C60.0317 44.1351 62.2862 42.3679 63.516 40.3968C65.0646 41.9601 67.0686 43.025 68.7082 43.025C71.942 43.025 74.4015 37.4288 75.2896 34.8686L75.7451 34.9139C75.5174 38.0858 76.2917 42.3906 81.5978 42.3906C83.3741 42.3906 84.991 41.6202 86.289 40.5327C86.2662 41.2124 86.3118 41.7562 86.494 42.0734C86.8356 43.0249 92.4605 45.2906 93.2348 44.339C93.2803 42.8437 93.4625 41.3484 93.5764 39.853C94.5329 27.7544 96.8557 15.112 99.3835 3.42115C99.5657 2.44692 95.3754 0.611725 93.713 0.611725Z" fill="#1A96CA"/>
<path d="M112.273 21.6371C114.049 21.6371 118.24 18.5784 118.24 16.4714C118.24 15.4745 116.236 12.7557 115.552 12.7557C114.482 12.7557 97.8349 16.9698 97.5389 19.3034C97.3795 20.7535 98.3815 23.8574 99.2696 24.6278C103.118 25.1262 108.971 29.0685 108.971 34.3928C108.971 37.8819 107.354 40.2608 104.166 40.2608C101.274 40.2608 100.477 37.9272 100.545 37.4288C100.545 36.9756 103.004 32.7162 103.05 31.0396C103.05 30.5865 100.978 28.7059 99.0419 28.7059C96.5369 28.7059 94.8517 32.6935 94.8517 35.299C94.8517 39.6718 100.704 45.2226 106.625 45.2226C111.476 45.2226 115.757 42.8437 115.757 36.4545C115.757 26.8028 104.394 22.4301 104.394 22.4301L104.348 22.2035C104.849 21.7504 108.812 20.1417 110.656 20.0964C111.385 20.1417 111.544 21.6371 112.273 21.6371Z" fill="#1A96CA"/>
<path d="M125.982 11.3283C130.947 11.3283 132.564 7.72591 132.564 5.77744C132.564 4.12351 131.402 3.44381 130.218 2.94536C130.765 0.996892 129.603 0.611725 127.645 0.611725C123.682 0.611725 122.68 5.77744 122.68 7.43137C122.703 10.2181 124.753 11.3283 125.982 11.3283Z" fill="#1A96CA"/>
<path d="M165.129 13.7073C163.512 13.7073 161.554 28.4114 161.053 30.4505C160.438 32.7841 158.206 37.8819 156.544 37.8819C155.587 37.8819 155.428 36.6131 155.428 35.2084C155.656 28.9325 157.591 22.498 159.504 16.4714C159.39 15.1346 157.113 13.9112 155.109 13.9112C154.95 13.9112 154.813 13.9112 154.654 13.9338C154.13 13.2541 153.469 12.7557 152.695 12.7557C150.691 12.7557 147.389 13.526 142.607 14.2057C143.495 10.5353 144.998 5.66416 144.998 2.94536C144.998 0.996892 143.039 0 140.033 0C138.917 0 138.143 0.226566 138.143 0.226566C137.597 2.90005 136.253 10.1049 135.297 14.9307C129.945 15.8823 130.218 15.769 130.218 16.9245C130.218 17.9894 130.992 19.9152 131.949 20.6402L133.907 22.2035C133.566 24.6504 132.7 28.1622 131.858 32.331C131.152 32.1951 130.583 32.2404 130.583 32.2404C130.423 34.3475 129.125 39.9436 126.005 39.9436C125.163 39.9436 124.502 39.06 124.548 37.1116C124.593 33.056 127.28 23.0191 128.783 17.8761C129.444 15.6104 123.591 14.7721 122.817 14.7721C122.316 14.7721 121.747 14.8854 121.542 15.4971C120.152 19.4394 117.033 31.8099 117.033 37.0663C117.033 42.0054 119.538 44.3843 123.773 44.3843C126.415 44.3843 128.624 43.4101 130.332 41.9827C130.15 43.5007 130.036 44.9734 130.036 46.2648C130.036 49.8672 131.539 52.4275 135.001 52.4275C138.462 52.4275 146.934 45.2226 146.934 33.6904C146.934 27.3692 145.203 24.084 141.468 20.2097L141.514 19.9378C144.702 19.4847 148.277 19.0089 151.26 18.6691C149.689 23.4723 148.55 28.9778 148.55 34.3475C148.55 37.61 149.621 42.3226 154.676 42.3226C157.068 42.3226 158.798 40.5554 159.686 38.8335C159.185 43.0476 157.295 50.1391 157.295 52.2462C157.295 53.1298 157.455 53.3564 158.024 53.6282C159.14 54.1267 162.146 55.1916 163.034 55.1916C163.649 55.1916 164.104 55.1462 164.264 53.9681C164.651 48.6891 166.496 37.2249 167.543 31.606C168.158 27.7317 171.005 21.4105 171.005 16.1315C170.982 14.9307 167.862 13.7073 165.129 13.7073ZM142.493 35.3443C142.265 43.8859 138.53 47.7149 137.802 47.7149C137.141 47.7149 136.959 46.8313 137.027 45.6078C137.073 44.339 137.301 42.7304 137.483 41.3937C138.371 34.7326 139.646 28.1395 140.056 25.0809C142.265 28.0263 142.607 32.0591 142.493 35.3443Z" fill="#1A96CA"/>
<path d="M171.407 46.4907C173.378 46.4907 174.931 44.8839 174.931 42.9884V42.9692C174.931 41.0737 173.397 39.4862 171.426 39.4862C169.456 39.4862 167.902 41.093 167.902 42.9884V43.0077C167.902 44.9031 169.436 46.4907 171.407 46.4907ZM171.407 46.1058C169.64 46.1058 168.31 44.7107 168.31 43.0077V42.9884C168.31 41.2854 169.65 39.871 171.426 39.871C173.193 39.871 174.523 41.2662 174.523 42.9692V42.9884C174.523 44.6915 173.184 46.1058 171.407 46.1058ZM169.873 44.7396H170.912V43.6138H171.349H171.368L172.125 44.7396H173.32L172.426 43.4503C172.892 43.2578 173.193 42.8826 173.193 42.3149V42.2957C173.193 41.9397 173.087 41.6607 172.873 41.449C172.611 41.1892 172.203 41.0353 171.611 41.0353H169.873V44.7396ZM170.912 42.8152V41.9204H171.582C171.931 41.9204 172.155 42.0648 172.155 42.363V42.3823C172.155 42.6517 171.951 42.8152 171.591 42.8152H170.912Z" fill="#1A96CA"/>
</svg>
