<svg width="204.43mm" height="195.91mm" version="1.1" viewBox="0 0 204.43 195.91" xmlns="http://www.w3.org/2000/svg">
 <g transform="translate(-16.088 65.456)">
  <path d="m118.23-65.456c-10.205 0-15.359 9.8397-15.359 9.8397h30.752s-4.928-9.8397-15.393-9.8397zm-15.361 9.8402-24.853 41.454-46.805 10.805v5.17e-4c-0.02864 0.00445-10.979 1.7128-14.269 11.359-3.3345 9.774 4.1275 17.524 4.3248 17.727l-0.0072 0.02119 31.922 36.649-4.1295 47.191s-2.2226 10.883 5.6875 17.331c7.2373 5.8999 16.613 2.6848 18.554 1.9218l5.17e-4 5.2e-4 0.03307-0.0139c0.2103-0.0833 0.3483-0.14263 0.3483-0.14263l-0.0047-4e-3 44.65-19.005 45.133 19.159-3e-3 2e-3s10.204 4.6748 18.356-1.8872c7.9498-6.3994 5.7945-17.296 5.7945-17.296l-4.1863-47.32 31.557-36.3s7.9297-7.6305 4.8183-17.622c-3.0343-9.7439-13.961-11.739-13.961-11.739l0.0109 0.034106-0.0114-0.033589-47.322-10.877-24.884-41.416z" style="fill:#0080b7;stroke-dasharray:0.999998, 0.999998;stroke-width:.5"/>
 </g>
</svg>
