<svg width="566" height="192" viewBox="0 0 566 192" fill="none" xmlns="http://www.w3.org/2000/svg">
<g clip-path="url(#clip0_22049_25)">
<path d="M235.13 63.3467V70.2452H222.763V92.064H234.671V98.8689H222.763V128.616H215.434V63.3467H235.13Z" fill="white"/>
<path d="M254.22 129.185H251.475C243.501 129.185 239.567 125.174 239.567 117.059V74.9114C239.567 66.796 243.508 62.7922 251.475 62.7922H254.22C262.193 62.7922 266.127 66.8032 266.127 74.9114V117.059C266.134 125.174 262.193 129.185 254.22 129.185ZM253.944 69.5971H251.743C248.447 69.5971 246.89 71.1813 246.89 74.537V117.433C246.89 120.789 248.447 122.373 251.743 122.373H253.944C257.241 122.373 258.797 120.789 258.797 117.433V74.537C258.804 71.1813 257.241 69.5971 253.944 69.5971Z" fill="white"/>
<path d="M297.369 117.058C297.369 125.174 293.429 129.185 285.462 129.185H283.17C275.196 129.185 271.263 125.174 271.263 117.058V63.3467H278.592V117.433C278.592 120.789 280.149 122.373 283.446 122.373H285.186C288.483 122.373 290.04 120.789 290.04 117.433V63.3467H297.369V117.058V117.058Z" fill="white"/>
<path d="M328.301 106.617V128.623H320.972V106.898C320.972 102.981 319.231 101.209 315.382 101.209H309.977V128.623H302.647V63.3467H316.295C324.269 63.3467 328.202 67.3576 328.202 75.4659V87.585C328.202 93.461 326.186 96.3486 322.521 97.8392C326.561 98.9697 328.301 101.584 328.301 106.617ZM316.026 70.1588H309.977V94.5916H315.474C319.139 94.5916 320.88 92.8201 320.88 89.09V75.1058C320.88 71.743 319.323 70.1588 316.026 70.1588Z" fill="white"/>
<path d="M365.402 128.623L353.403 96.543V128.623H346.073V63.3467H353.403V94.9588L366.046 63.3467H373.836L360.641 95.4269L373.468 128.623H365.402Z" fill="white"/>
<path d="M385.043 128.623H377.713V63.3467H385.043V128.623Z" fill="white"/>
<path d="M398.655 128.623V70.2524H389.033V63.3539H415.6V70.2524H405.978V128.623H398.655Z" fill="white"/>
<path d="M445.64 103.542V117.066C445.64 125.181 441.699 129.192 433.733 129.192H431.349C423.375 129.192 419.441 125.181 419.441 117.066V74.9186C419.441 66.8032 423.382 62.7994 431.349 62.7994H433.733C441.614 62.7994 445.456 66.7167 445.456 74.7314V86.4833H438.31V74.5514C438.31 71.1957 436.754 69.6115 433.457 69.6115H431.625C428.328 69.6115 426.771 71.1957 426.771 74.5514V117.447C426.771 120.803 428.328 122.387 431.625 122.387H433.641C436.938 122.387 438.494 120.803 438.494 117.447V103.557H445.64V103.542Z" fill="white"/>
<path d="M469.843 91.7904V63.3467H477.173V128.623H469.843V98.7825H457.936V128.623H450.606V63.3467H457.936V91.7904H469.843Z" fill="white"/>
<path d="M502.665 63.3467V70.2452H489.838V91.8768H502.205V98.6817H489.838V121.71H502.849V128.609H482.516V63.3467H502.665Z" fill="white"/>
<path d="M514.557 77.5253V128.623H507.596V63.3467H517.67L528.297 110.434V63.3467H535.259V128.623H526.097L514.557 77.5253Z" fill="white"/>
<path d="M566 107.546V117.059C566 125.174 562.059 129.185 554.093 129.185H552.076C544.195 129.185 540.346 125.174 540.346 117.246V103.535H547.492V117.519C547.492 120.875 549.048 122.459 552.345 122.459H553.81C557.107 122.459 558.663 120.875 558.663 117.519V107.726C558.663 104.464 557.567 103.067 555.458 101.476L546.48 94.858C541.718 91.4088 540.339 88.0531 540.339 82.7316V74.897C540.339 66.7816 544.28 62.7778 552.246 62.7778H554.079C561.96 62.7778 565.809 66.7888 565.809 74.7098V86.4617H558.663V74.429C558.663 71.0733 557.107 69.4891 553.81 69.4891H552.529C549.232 69.4891 547.676 71.0733 547.676 74.429V82.638C547.676 85.9001 548.864 87.297 550.973 88.8884L559.859 95.4125C564.535 98.8761 566 101.951 566 107.546Z" fill="white"/>
<path d="M188.742 111.244C197.02 59.3309 162.382 10.4172 111.377 1.99202C60.3722 -6.43313 12.3139 28.8208 4.03613 80.7338C-4.24167 132.647 30.3956 181.561 81.4007 189.986C132.406 198.411 180.464 163.157 188.742 111.244Z" fill="#35AA4E"/>
<path d="M120.938 70.1155V58.6516C120.938 47.0508 123.888 41.0381 135.562 41.0381H138.378V32.1593H133.815C117.846 32.1593 110.071 40.9012 110.071 57.557V67.2495C110.071 81.3129 106.314 91.0054 92.3622 91.0054H91.1523V100.827H92.3622C106.173 100.827 110.071 110.794 110.071 124.576V134.413C110.071 150.795 117.577 159.803 133.815 159.803H138.378V150.932H135.562C123.888 150.932 120.938 144.926 120.938 133.318V121.854C120.938 108.194 115.434 100.007 103.901 96.046C115.306 91.9559 120.938 84.0421 120.938 70.1155Z" fill="white"/>
<path d="M82.7826 117.707V67.1128C82.7826 45.8701 80.8299 30.9857 80.8299 30.9857C80.8299 30.9857 66.8214 41.031 60.7298 68.9203C55.9117 90.9983 54.3906 114.769 54.3906 114.769C54.3906 114.769 72.6583 114.632 73.7549 117.001C74.8445 119.363 72.6087 125.959 72.6087 133.614C72.6087 141.268 73.5639 144.84 72.7432 147.756C71.9225 150.687 69.9556 151.429 69.8707 152.768C69.7858 154.107 70.0122 160.984 76.9882 160.984C78.9267 160.984 81.7638 159.09 82.3086 154.172C83.2071 146.122 83.4618 130.107 82.7826 117.707ZM76.875 155.339C75.9765 155.339 75.2619 154.604 75.2619 153.697C75.2619 152.79 75.9835 152.048 76.875 152.048C77.7735 152.048 78.4951 152.79 78.4951 153.697C78.4951 154.604 77.7735 155.339 76.875 155.339ZM78.1839 140.915C77.2853 140.915 76.5637 140.181 76.5637 139.266C76.5637 138.359 77.2853 137.624 78.1839 137.624C79.0753 137.624 79.804 138.359 79.804 139.266C79.797 140.181 79.0753 140.915 78.1839 140.915ZM78.4244 126.909C77.54 126.909 76.8113 126.168 76.8113 125.26C76.8113 124.346 77.54 123.611 78.4244 123.611C79.3229 123.611 80.0446 124.346 80.0446 125.26C80.0446 126.168 79.3229 126.909 78.4244 126.909Z" fill="white"/>
</g>
<defs>
<clipPath id="clip0_22049_25">
<rect width="566" height="191.401" fill="white"/>
</clipPath>
</defs>
</svg>
