<svg version="1.1" viewBox="0 0 17.409 17.814" width="100%" height="100%" xml:space="preserve" xmlns="http://www.w3.org/2000/svg">
  <g>
    <path d="m12.891 16.654-4.6312-6.7288-0.65953-0.95784-5.374-7.808h2.3117l4.346 6.3145 0.65947 0.95784 5.6593 8.2223zm3.2673-0.65727-5.8331-8.4743-0.65947-0.95843-4.1726-6.062-0.34583-0.50237h-5.1273l1.2505 1.8171 5.548 8.0611 0.6595 0.9574 4.4577 6.4769 0.34586 0.50178h5.1273l-1.2505-1.8171"/>
    <path d="m7.6003 8.9678 0.65953 0.95784-0.78184 0.90992-5.9987 6.9787h-1.4793l6.8185-7.9361 0.78181-0.91036"/>
    <path d="m16.792 0-6.4663 7.5228-0.78184 0.90934-0.65947-0.95784 0.78184-0.90992 4.3802-5.0983 1.2663-1.4661h1.4793"/>
  </g>
</svg>
